<svg width="100" height="100" viewBox="0 0 100 100" fill="none" xmlns="http://www.w3.org/2000/svg">
    <circle cx="50" cy="50" r="48" fill="#4A90E2"/>
    
    <path d="M50 2C23.49 2 2 23.49 2 50S23.49 98 50 98" stroke="#FFFFFF" stroke-width="3" stroke-linecap="round"/>
    <path d="M22 25C30.6667 36.3333 34.8 55.6 22 75" stroke="#FFFFFF" stroke-width="3" stroke-linecap="round"/>
    <path d="M78 25C69.3333 36.3333 65.2 55.6 78 75" stroke="#FFFFFF" stroke-width="3" stroke-linecap="round"/>
    <path d="M12 50H88" stroke="#FFFFFF" stroke-width="3" stroke-linecap="round"/>

    <path d="M41 35C41 30.0294 45.0294 26 50 26C54.9706 26 59 30.0294 59 35C59 38.956 56.416 42.446 52.8 43.6L50 48V54" stroke="#FFD700" stroke-width="8" stroke-linecap="round" stroke-linejoin="round"/>
    <circle cx="50" cy="62" r="4" fill="#FFD700"/>
</svg>